<svg xmlns="http://www.w3.org/2000/svg" version="1.1" xmlns:xlink="http://www.w3.org/1999/xlink" xmlns:svgjs="http://svgjs.dev/svgjs" viewBox="0 0 800 800"><defs><linearGradient x1="50%" y1="0%" x2="50%" y2="100%" id="ffflurry-grad" gradientTransform="rotate(270)"><stop stop-color="hsl(0, 0%, 0%)" stop-opacity="1" offset="0%"></stop><stop stop-color="hsl(357, 95%, 32%)" stop-opacity="1" offset="45%"></stop><stop stop-color="#7a0309" stop-opacity="1" offset="100%"></stop></linearGradient></defs><rect width="100%" height="100%" fill="hsl(0, 0%, 0%)"></rect><g fill="url(#ffflurry-grad)"><rect width="47" height="4" x="562.5" y="260" rx="2" transform="rotate(111, 586, 262)" opacity="0.44"></rect><rect width="109" height="4" x="429.5" y="757" rx="2" transform="rotate(111, 484, 759)" opacity="0.49"></rect><rect width="211" height="4" x="276.5" y="305" rx="2" transform="rotate(111, 382, 307)" opacity="0.95"></rect><rect width="230" height="4" x="204" y="146" rx="2" transform="rotate(111, 319, 148)" opacity="0.62"></rect><rect width="127" height="4" x="471.5" y="556" rx="2" transform="rotate(111, 535, 558)" opacity="0.70"></rect><rect width="237" height="4" x="46.5" y="211" rx="2" transform="rotate(111, 165, 213)" opacity="1.00"></rect><rect width="207" height="4" x="43.5" y="760" rx="2" transform="rotate(111, 147, 762)" opacity="0.74"></rect><rect width="175" height="4" x="253.5" y="578" rx="2" transform="rotate(111, 341, 580)" opacity="0.13"></rect><rect width="89" height="4" x="419.5" y="22" rx="2" transform="rotate(111, 464, 24)" opacity="0.77"></rect><rect width="119" height="4" x="286.5" y="467" rx="2" transform="rotate(111, 346, 469)" opacity="0.57"></rect><rect width="101" height="4" x="-9.5" y="514" rx="2" transform="rotate(111, 41, 516)" opacity="0.61"></rect><rect width="47" height="4" x="697.5" y="23" rx="2" transform="rotate(111, 721, 25)" opacity="0.95"></rect><rect width="201" height="4" x="601.5" y="430" rx="2" transform="rotate(111, 702, 432)" opacity="0.65"></rect><rect width="78" height="4" x="30" y="326" rx="2" transform="rotate(111, 69, 328)" opacity="0.80"></rect><rect width="204" height="4" x="328" y="168" rx="2" transform="rotate(111, 430, 170)" opacity="0.25"></rect><rect width="188" height="4" x="590" y="167" rx="2" transform="rotate(111, 684, 169)" opacity="0.78"></rect><rect width="172" height="4" x="-41" y="261" rx="2" transform="rotate(111, 45, 263)" opacity="0.77"></rect><rect width="71" height="4" x="114.5" y="326" rx="2" transform="rotate(111, 150, 328)" opacity="0.95"></rect><rect width="185" height="4" x="613.5" y="762" rx="2" transform="rotate(111, 706, 764)" opacity="0.08"></rect><rect width="165" height="4" x="409.5" y="335" rx="2" transform="rotate(111, 492, 337)" opacity="0.09"></rect><rect width="189" height="4" x="426.5" y="50" rx="2" transform="rotate(111, 521, 52)" opacity="0.99"></rect><rect width="108" height="4" x="344" y="759" rx="2" transform="rotate(111, 398, 761)" opacity="0.99"></rect><rect width="192" height="4" x="498" y="622" rx="2" transform="rotate(111, 594, 624)" opacity="0.17"></rect><rect width="199" height="4" x="-48.5" y="750" rx="2" transform="rotate(111, 51, 752)" opacity="0.28"></rect><rect width="136" height="4" x="196" y="266" rx="2" transform="rotate(111, 264, 268)" opacity="0.24"></rect><rect width="65" height="4" x="7.5" y="661" rx="2" transform="rotate(111, 40, 663)" opacity="0.36"></rect><rect width="62" height="4" x="523" y="755" rx="2" transform="rotate(111, 554, 757)" opacity="0.56"></rect><rect width="88" height="4" x="117" y="678" rx="2" transform="rotate(111, 161, 680)" opacity="0.42"></rect><rect width="53" height="4" x="627.5" y="677" rx="2" transform="rotate(111, 654, 679)" opacity="0.72"></rect><rect width="119" height="4" x="407.5" y="493" rx="2" transform="rotate(111, 467, 495)" opacity="0.59"></rect><rect width="134" height="4" x="278" y="710" rx="2" transform="rotate(111, 345, 712)" opacity="0.90"></rect><rect width="155" height="4" x="437.5" y="121" rx="2" transform="rotate(111, 515, 123)" opacity="0.74"></rect><rect width="128" height="4" x="188" y="762" rx="2" transform="rotate(111, 252, 764)" opacity="0.63"></rect><rect width="146" height="4" x="153" y="139" rx="2" transform="rotate(111, 226, 141)" opacity="0.80"></rect><rect width="126" height="4" x="329" y="386" rx="2" transform="rotate(111, 392, 388)" opacity="0.18"></rect><rect width="43" height="4" x="429.5" y="265" rx="2" transform="rotate(111, 451, 267)" opacity="0.64"></rect><rect width="96" height="4" x="231" y="440" rx="2" transform="rotate(111, 279, 442)" opacity="0.13"></rect><rect width="88" height="4" x="674" y="251" rx="2" transform="rotate(111, 718, 253)" opacity="0.85"></rect><rect width="182" height="4" x="264" y="224" rx="2" transform="rotate(111, 355, 226)" opacity="0.34"></rect><rect width="40" height="4" x="691" y="629" rx="2" transform="rotate(111, 711, 631)" opacity="0.31"></rect><rect width="232" height="4" x="-45" y="414" rx="2" transform="rotate(111, 71, 416)" opacity="0.77"></rect><rect width="110" height="4" x="703" y="311" rx="2" transform="rotate(111, 758, 313)" opacity="0.20"></rect><rect width="44" height="4" x="121" y="40" rx="2" transform="rotate(111, 143, 42)" opacity="0.86"></rect><rect width="35" height="4" x="457.5" y="418" rx="2" transform="rotate(111, 475, 420)" opacity="0.43"></rect><rect width="29" height="4" x="403.5" y="427" rx="2" transform="rotate(111, 418, 429)" opacity="0.63"></rect><rect width="64" height="4" x="726" y="383" rx="2" transform="rotate(111, 758, 385)" opacity="0.60"></rect><rect width="187" height="4" x="-27.5" y="86" rx="2" transform="rotate(111, 66, 88)" opacity="0.27"></rect><rect width="119" height="4" x="20.5" y="603" rx="2" transform="rotate(111, 80, 605)" opacity="0.39"></rect><rect width="47" height="4" x="247.5" y="685" rx="2" transform="rotate(111, 271, 687)" opacity="0.34"></rect><rect width="154" height="4" x="205" y="341" rx="2" transform="rotate(111, 282, 343)" opacity="0.60"></rect><rect width="78" height="4" x="247" y="397" rx="2" transform="rotate(111, 286, 399)" opacity="0.57"></rect><rect width="130" height="4" x="708" y="458" rx="2" transform="rotate(111, 773, 460)" opacity="0.12"></rect><rect width="118" height="4" x="101" y="577" rx="2" transform="rotate(111, 160, 579)" opacity="0.41"></rect><rect width="132" height="4" x="439" y="222" rx="2" transform="rotate(111, 505, 224)" opacity="0.30"></rect><rect width="249" height="4" x="169.5" y="44" rx="2" transform="rotate(111, 294, 46)" opacity="0.46"></rect><rect width="92" height="4" x="563" y="735" rx="2" transform="rotate(111, 609, 737)" opacity="0.62"></rect><rect width="72" height="4" x="101" y="487" rx="2" transform="rotate(111, 137, 489)" opacity="0.88"></rect><rect width="196" height="4" x="453" y="487" rx="2" transform="rotate(111, 551, 489)" opacity="0.38"></rect><rect width="240" height="4" x="287" y="70" rx="2" transform="rotate(111, 407, 72)" opacity="0.32"></rect><rect width="47" height="4" x="641.5" y="75" rx="2" transform="rotate(111, 665, 77)" opacity="0.46"></rect><rect width="217" height="4" x="309.5" y="608" rx="2" transform="rotate(111, 418, 610)" opacity="0.84"></rect><rect width="182" height="4" x="504" y="49" rx="2" transform="rotate(111, 595, 51)" opacity="0.77"></rect><rect width="43" height="4" x="754.5" y="596" rx="2" transform="rotate(111, 776, 598)" opacity="0.40"></rect><rect width="62" height="4" x="720" y="510" rx="2" transform="rotate(111, 751, 512)" opacity="0.10"></rect><rect width="53" height="4" x="381.5" y="519" rx="2" transform="rotate(111, 408, 521)" opacity="0.78"></rect><rect width="106" height="4" x="228" y="490" rx="2" transform="rotate(111, 281, 492)" opacity="0.58"></rect><rect width="93" height="4" x="671.5" y="552" rx="2" transform="rotate(111, 718, 554)" opacity="0.21"></rect><rect width="103" height="4" x="522.5" y="170" rx="2" transform="rotate(111, 574, 172)" opacity="0.78"></rect><rect width="61" height="4" x="243.5" y="547" rx="2" transform="rotate(111, 274, 549)" opacity="0.68"></rect><rect width="175" height="4" x="453.5" y="403" rx="2" transform="rotate(111, 541, 405)" opacity="0.62"></rect><rect width="55" height="4" x="222.5" y="615" rx="2" transform="rotate(111, 250, 617)" opacity="0.76"></rect><rect width="169" height="4" x="121.5" y="342" rx="2" transform="rotate(111, 206, 344)" opacity="0.33"></rect><rect width="119" height="4" x="-8.5" y="175" rx="2" transform="rotate(111, 51, 177)" opacity="0.93"></rect><rect width="48" height="4" x="181" y="415" rx="2" transform="rotate(111, 205, 417)" opacity="0.15"></rect><rect width="131" height="4" x="389.5" y="682" rx="2" transform="rotate(111, 455, 684)" opacity="0.13"></rect><rect width="110" height="4" x="590" y="551" rx="2" transform="rotate(111, 645, 553)" opacity="0.56"></rect><rect width="176" height="4" x="676" y="708" rx="2" transform="rotate(111, 764, 710)" opacity="0.30"></rect><rect width="140" height="4" x="559" y="447" rx="2" transform="rotate(111, 629, 449)" opacity="0.34"></rect><rect width="171" height="4" x="433.5" y="639" rx="2" transform="rotate(111, 519, 641)" opacity="0.65"></rect><rect width="54" height="4" x="740" y="99" rx="2" transform="rotate(111, 767, 101)" opacity="0.75"></rect><rect width="109" height="4" x="158.5" y="502" rx="2" transform="rotate(111, 213, 504)" opacity="0.72"></rect><rect width="85" height="4" x="298.5" y="366" rx="2" transform="rotate(111, 341, 368)" opacity="0.81"></rect><rect width="134" height="4" x="556" y="343" rx="2" transform="rotate(111, 623, 345)" opacity="0.93"></rect></g></svg>