<svg xmlns="http://www.w3.org/2000/svg" version="1.1" xmlns:xlink="http://www.w3.org/1999/xlink" xmlns:svgjs="http://svgjs.dev/svgjs" viewBox="0 0 800 800"><defs><linearGradient x1="50%" y1="0%" x2="50%" y2="100%" id="ffflurry-grad" gradientTransform="rotate(270)"><stop stop-color="hsl(0, 0%, 0%)" stop-opacity="1" offset="0%"></stop><stop stop-color="hsl(357, 95%, 32%)" stop-opacity="1" offset="45%"></stop><stop stop-color="#7a0309" stop-opacity="1" offset="100%"></stop></linearGradient></defs><rect width="100%" height="100%" fill="hsl(0, 0%, 0%)"></rect><g fill="url(#ffflurry-grad)"><rect width="71" height="1" x="401.5" y="715.5" rx="0.5" transform="rotate(90, 437, 716)" opacity="0.85"></rect><rect width="174" height="1" x="470" y="196.5" rx="0.5" transform="rotate(90, 557, 197)" opacity="0.84"></rect><rect width="141" height="1" x="449.5" y="80.5" rx="0.5" transform="rotate(90, 520, 81)" opacity="0.70"></rect><rect width="132" height="1" x="-10" y="26.5" rx="0.5" transform="rotate(90, 56, 27)" opacity="0.99"></rect><rect width="89" height="1" x="83.5" y="411.5" rx="0.5" transform="rotate(90, 128, 412)" opacity="0.26"></rect><rect width="220" height="1" x="653" y="703.5" rx="0.5" transform="rotate(90, 763, 704)" opacity="0.34"></rect><rect width="76" height="1" x="417" y="627.5" rx="0.5" transform="rotate(90, 455, 628)" opacity="0.09"></rect><rect width="153" height="1" x="-30.5" y="384.5" rx="0.5" transform="rotate(90, 46, 385)" opacity="0.62"></rect><rect width="160" height="1" x="512" y="36.5" rx="0.5" transform="rotate(90, 592, 37)" opacity="0.51"></rect><rect width="188" height="1" x="623" y="383.5" rx="0.5" transform="rotate(90, 717, 384)" opacity="0.27"></rect><rect width="165" height="1" x="29.5" y="509.5" rx="0.5" transform="rotate(90, 112, 510)" opacity="0.89"></rect><rect width="188" height="1" x="587" y="756.5" rx="0.5" transform="rotate(90, 681, 757)" opacity="0.34"></rect><rect width="197" height="1" x="153.5" y="118.5" rx="0.5" transform="rotate(90, 252, 119)" opacity="0.88"></rect><rect width="208" height="1" x="69" y="41.5" rx="0.5" transform="rotate(90, 173, 42)" opacity="0.55"></rect><rect width="162" height="1" x="586" y="53.5" rx="0.5" transform="rotate(90, 667, 54)" opacity="0.80"></rect><rect width="134" height="1" x="418" y="407.5" rx="0.5" transform="rotate(90, 485, 408)" opacity="0.25"></rect><rect width="216" height="1" x="488" y="557.5" rx="0.5" transform="rotate(90, 596, 558)" opacity="0.74"></rect><rect width="220" height="1" x="182" y="40.5" rx="0.5" transform="rotate(90, 292, 41)" opacity="0.46"></rect><rect width="184" height="1" x="520" y="291.5" rx="0.5" transform="rotate(90, 612, 292)" opacity="0.40"></rect><rect width="66" height="1" x="721" y="131.5" rx="0.5" transform="rotate(90, 754, 132)" opacity="0.32"></rect><rect width="139" height="1" x="312.5" y="641.5" rx="0.5" transform="rotate(90, 382, 642)" opacity="0.27"></rect><rect width="156" height="1" x="680" y="584.5" rx="0.5" transform="rotate(90, 758, 585)" opacity="0.96"></rect><rect width="209" height="1" x="81.5" y="572.5" rx="0.5" transform="rotate(90, 186, 573)" opacity="0.69"></rect><rect width="103" height="1" x="460.5" y="549.5" rx="0.5" transform="rotate(90, 512, 550)" opacity="0.82"></rect><rect width="144" height="1" x="428" y="256.5" rx="0.5" transform="rotate(90, 500, 257)" opacity="0.49"></rect><rect width="160" height="1" x="-37" y="302.5" rx="0.5" transform="rotate(90, 43, 303)" opacity="0.74"></rect><rect width="117" height="1" x="536.5" y="452.5" rx="0.5" transform="rotate(90, 595, 453)" opacity="0.30"></rect><rect width="112" height="1" x="521" y="124.5" rx="0.5" transform="rotate(90, 577, 125)" opacity="0.48"></rect><rect width="103" height="1" x="348.5" y="526.5" rx="0.5" transform="rotate(90, 400, 527)" opacity="0.29"></rect><rect width="66" height="1" x="731" y="326.5" rx="0.5" transform="rotate(90, 764, 327)" opacity="0.64"></rect><rect width="174" height="1" x="576" y="516.5" rx="0.5" transform="rotate(90, 663, 517)" opacity="0.90"></rect><rect width="63" height="1" x="498.5" y="354.5" rx="0.5" transform="rotate(90, 530, 355)" opacity="0.54"></rect><rect width="142" height="1" x="102" y="466.5" rx="0.5" transform="rotate(90, 173, 467)" opacity="0.19"></rect><rect width="99" height="1" x="233.5" y="219.5" rx="0.5" transform="rotate(90, 283, 220)" opacity="0.14"></rect><rect width="236" height="1" x="185" y="520.5" rx="0.5" transform="rotate(90, 303, 521)" opacity="0.91"></rect><rect width="76" height="1" x="450" y="21.5" rx="0.5" transform="rotate(90, 488, 22)" opacity="0.14"></rect><rect width="111" height="1" x="365.5" y="113.5" rx="0.5" transform="rotate(90, 421, 114)" opacity="0.26"></rect><rect width="197" height="1" x="36.5" y="128.5" rx="0.5" transform="rotate(90, 135, 129)" opacity="0.69"></rect><rect width="112" height="1" x="545" y="670.5" rx="0.5" transform="rotate(90, 601, 671)" opacity="0.24"></rect><rect width="74" height="1" x="706" y="234.5" rx="0.5" transform="rotate(90, 743, 235)" opacity="0.84"></rect><rect width="211" height="1" x="657.5" y="438.5" rx="0.5" transform="rotate(90, 763, 439)" opacity="0.23"></rect><rect width="263" height="1" x="145.5" y="722.5" rx="0.5" transform="rotate(90, 277, 723)" opacity="0.42"></rect><rect width="55" height="1" x="423.5" y="170.5" rx="0.5" transform="rotate(90, 451, 171)" opacity="0.93"></rect><rect width="136" height="1" x="308" y="763.5" rx="0.5" transform="rotate(90, 376, 764)" opacity="0.28"></rect><rect width="172" height="1" x="590" y="637.5" rx="0.5" transform="rotate(90, 676, 638)" opacity="0.19"></rect><rect width="122" height="1" x="512" y="256.5" rx="0.5" transform="rotate(90, 573, 257)" opacity="0.46"></rect><rect width="82" height="1" x="256" y="308.5" rx="0.5" transform="rotate(90, 297, 309)" opacity="0.14"></rect><rect width="210" height="1" x="112" y="356.5" rx="0.5" transform="rotate(90, 217, 357)" opacity="0.32"></rect><rect width="125" height="1" x="532.5" y="367.5" rx="0.5" transform="rotate(90, 595, 368)" opacity="0.52"></rect><rect width="154" height="1" x="287" y="173.5" rx="0.5" transform="rotate(90, 364, 174)" opacity="0.61"></rect><rect width="72" height="1" x="406" y="58.5" rx="0.5" transform="rotate(90, 442, 59)" opacity="0.14"></rect><rect width="65" height="1" x="608.5" y="208.5" rx="0.5" transform="rotate(90, 641, 209)" opacity="0.20"></rect><rect width="61" height="1" x="208.5" y="448.5" rx="0.5" transform="rotate(90, 239, 449)" opacity="0.72"></rect><rect width="223" height="1" x="639.5" y="39.5" rx="0.5" transform="rotate(90, 751, 40)" opacity="0.92"></rect><rect width="60" height="1" x="34" y="588.5" rx="0.5" transform="rotate(90, 64, 589)" opacity="0.51"></rect><rect width="195" height="1" x="206.5" y="386.5" rx="0.5" transform="rotate(90, 304, 387)" opacity="0.92"></rect><rect width="36" height="1" x="440" y="503.5" rx="0.5" transform="rotate(90, 458, 504)" opacity="0.43"></rect><rect width="162" height="1" x="-56" y="221.5" rx="0.5" transform="rotate(90, 25, 222)" opacity="0.70"></rect><rect width="219" height="1" x="-74.5" y="471.5" rx="0.5" transform="rotate(90, 35, 472)" opacity="0.67"></rect><rect width="274" height="1" x="24" y="730.5" rx="0.5" transform="rotate(90, 161, 731)" opacity="0.94"></rect><rect width="79" height="1" x="699.5" y="512.5" rx="0.5" transform="rotate(90, 739, 513)" opacity="0.74"></rect><rect width="128" height="1" x="113" y="209.5" rx="0.5" transform="rotate(90, 177, 210)" opacity="0.46"></rect><rect width="37" height="1" x="517.5" y="708.5" rx="0.5" transform="rotate(90, 536, 709)" opacity="0.62"></rect><rect width="105" height="1" x="445.5" y="183.5" rx="0.5" transform="rotate(90, 498, 184)" opacity="0.50"></rect><rect width="151" height="1" x="260.5" y="599.5" rx="0.5" transform="rotate(90, 336, 600)" opacity="0.92"></rect><rect width="81" height="1" x="-1.5" y="151.5" rx="0.5" transform="rotate(90, 39, 152)" opacity="0.75"></rect><rect width="124" height="1" x="599" y="423.5" rx="0.5" transform="rotate(90, 661, 424)" opacity="0.91"></rect><rect width="198" height="1" x="429" y="622.5" rx="0.5" transform="rotate(90, 528, 623)" opacity="0.65"></rect><rect width="201" height="1" x="429.5" y="468.5" rx="0.5" transform="rotate(90, 530, 469)" opacity="0.13"></rect><rect width="190" height="1" x="-44" y="715.5" rx="0.5" transform="rotate(90, 51, 716)" opacity="0.15"></rect><rect width="140" height="1" x="302" y="48.5" rx="0.5" transform="rotate(90, 372, 49)" opacity="0.57"></rect><rect width="88" height="1" x="491" y="771.5" rx="0.5" transform="rotate(90, 535, 772)" opacity="0.75"></rect><rect width="60" height="1" x="94" y="327.5" rx="0.5" transform="rotate(90, 124, 328)" opacity="0.35"></rect><rect width="36" height="1" x="177" y="286.5" rx="0.5" transform="rotate(90, 195, 287)" opacity="0.99"></rect><rect width="45" height="1" x="390.5" y="397.5" rx="0.5" transform="rotate(90, 413, 398)" opacity="0.91"></rect><rect width="186" height="1" x="286" y="293.5" rx="0.5" transform="rotate(90, 379, 294)" opacity="0.85"></rect><rect width="90" height="1" x="46" y="226.5" rx="0.5" transform="rotate(90, 91, 227)" opacity="0.26"></rect><rect width="127" height="1" x="605.5" y="143.5" rx="0.5" transform="rotate(90, 669, 144)" opacity="0.71"></rect><rect width="49" height="1" x="430.5" y="298.5" rx="0.5" transform="rotate(90, 455, 299)" opacity="0.36"></rect><rect width="249" height="1" x="127.5" y="612.5" rx="0.5" transform="rotate(90, 252, 613)" opacity="0.41"></rect><rect width="233" height="1" x="229.5" y="450.5" rx="0.5" transform="rotate(90, 346, 451)" opacity="0.89"></rect><rect width="168" height="1" x="589" y="319.5" rx="0.5" transform="rotate(90, 673, 320)" opacity="0.63"></rect><rect width="115" height="1" x="-5.5" y="85.5" rx="0.5" transform="rotate(90, 52, 86)" opacity="0.13"></rect></g></svg>