<svg id="visual" viewBox="0 0 900 600" width="900" height="600" xmlns="http://www.w3.org/2000/svg" xmlns:xlink="http://www.w3.org/1999/xlink" version="1.1"><rect x="0" y="0" width="900" height="600" fill="#000000"></rect><path d="M0 482L21.5 475.3C43 468.7 86 455.3 128.8 454.7C171.7 454 214.3 466 257.2 468C300 470 343 462 385.8 455.8C428.7 449.7 471.3 445.3 514.2 444.5C557 443.7 600 446.3 642.8 447.2C685.7 448 728.3 447 771.2 447.5C814 448 857 450 878.5 451L900 452L900 601L878.5 601C857 601 814 601 771.2 601C728.3 601 685.7 601 642.8 601C600 601 557 601 514.2 601C471.3 601 428.7 601 385.8 601C343 601 300 601 257.2 601C214.3 601 171.7 601 128.8 601C86 601 43 601 21.5 601L0 601Z" fill="#7a0309"></path><path d="M0 491L21.5 484.8C43 478.7 86 466.3 128.8 464.5C171.7 462.7 214.3 471.3 257.2 474.8C300 478.3 343 476.7 385.8 479.5C428.7 482.3 471.3 489.7 514.2 488.3C557 487 600 477 642.8 475.7C685.7 474.3 728.3 481.7 771.2 485.5C814 489.3 857 489.7 878.5 489.8L900 490L900 601L878.5 601C857 601 814 601 771.2 601C728.3 601 685.7 601 642.8 601C600 601 557 601 514.2 601C471.3 601 428.7 601 385.8 601C343 601 300 601 257.2 601C214.3 601 171.7 601 128.8 601C86 601 43 601 21.5 601L0 601Z" fill="#85030a"></path><path d="M0 513L21.5 513C43 513 86 513 128.8 513.8C171.7 514.7 214.3 516.3 257.2 515C300 513.7 343 509.3 385.8 508.3C428.7 507.3 471.3 509.7 514.2 515.7C557 521.7 600 531.3 642.8 533.5C685.7 535.7 728.3 530.3 771.2 529.5C814 528.7 857 532.3 878.5 534.2L900 536L900 601L878.5 601C857 601 814 601 771.2 601C728.3 601 685.7 601 642.8 601C600 601 557 601 514.2 601C471.3 601 428.7 601 385.8 601C343 601 300 601 257.2 601C214.3 601 171.7 601 128.8 601C86 601 43 601 21.5 601L0 601Z" fill="#91030b"></path><path d="M0 556L21.5 557.5C43 559 86 562 128.8 559C171.7 556 214.3 547 257.2 541.2C300 535.3 343 532.7 385.8 535.7C428.7 538.7 471.3 547.3 514.2 554.3C557 561.3 600 566.7 642.8 564.7C685.7 562.7 728.3 553.3 771.2 547.2C814 541 857 538 878.5 536.5L900 535L900 601L878.5 601C857 601 814 601 771.2 601C728.3 601 685.7 601 642.8 601C600 601 557 601 514.2 601C471.3 601 428.7 601 385.8 601C343 601 300 601 257.2 601C214.3 601 171.7 601 128.8 601C86 601 43 601 21.5 601L0 601Z" fill="#9d040b"></path></svg>